<?xml version="1.0" standalone="no"?><!DOCTYPE svg PUBLIC "-//W3C//DTD SVG 1.1//EN" "http://www.w3.org/Graphics/SVG/1.1/DTD/svg11.dtd"><svg t="1691584655949" class="icon" viewBox="0 0 1024 1024" version="1.1" xmlns="http://www.w3.org/2000/svg" p-id="6538" xmlns:xlink="http://www.w3.org/1999/xlink" width="200" height="200"><path d="M928 529.6c-9.6-11.2-24-17.6-38.4-17.6H526.4c-8 0-14.4-6.4-14.4-14.4V134.4c0-14.4-6.4-28.8-17.6-38.4-11.2-9.6-25.6-14.4-41.6-12.8-227.2 32-390.4 235.2-371.2 465.6 17.6 206.4 187.2 376 393.6 393.6 12.8 1.6 24 1.6 36.8 1.6 214.4 0 398.4-158.4 428.8-372.8 1.6-16-3.2-30.4-12.8-41.6zM480 878.4C304 864 160 720 145.6 544 129.6 352 260.8 182.4 448 148.8v348.8c0 43.2 35.2 78.4 78.4 78.4h348.8C841.6 763.2 672 894.4 480 878.4z" fill="#2c2c2c" p-id="6539"></path><path d="M628.8 448h246.4c16 0 32-8 41.6-20.8 9.6-12.8 12.8-30.4 8-46.4-43.2-132.8-147.2-238.4-280-280-16-4.8-33.6-1.6-46.4 8-14.4 8-22.4 24-22.4 41.6v246.4c0 27.2 24 51.2 52.8 51.2z m11.2-281.6c100.8 36.8 179.2 116.8 217.6 217.6H640V166.4z" fill="#2c2c2c" p-id="6540"></path></svg>