<?xml version="1.0" standalone="no"?><!DOCTYPE svg PUBLIC "-//W3C//DTD SVG 1.1//EN" "http://www.w3.org/Graphics/SVG/1.1/DTD/svg11.dtd"><svg t="1691584737220" class="icon" viewBox="0 0 1026 1024" version="1.1" xmlns="http://www.w3.org/2000/svg" p-id="9004" xmlns:xlink="http://www.w3.org/1999/xlink" width="200.390625" height="200"><path d="M59.733333 930.133333V73.955556H0v910.222222h1024v-54.044445z" p-id="9005" fill="#2c2c2c"></path><path d="M241.777778 856.177778c48.355556 0 85.333333-36.977778 85.333333-85.333334s-36.977778-85.333333-85.333333-85.333333-85.333333 36.977778-85.333334 85.333333c0 45.511111 39.822222 85.333333 85.333334 85.333334z m0-122.311111c19.911111 0 36.977778 17.066667 36.977778 36.977777s-17.066667 36.977778-36.977778 36.977778-36.977778-17.066667-36.977778-36.977778 17.066667-36.977778 36.977778-36.977777zM696.888889 372.622222c48.355556 0 85.333333-36.977778 85.333333-85.333333s-36.977778-85.333333-85.333333-85.333333-85.333333 36.977778-85.333333 85.333333c0 45.511111 39.822222 85.333333 85.333333 85.333333z m0-122.311111c19.911111 0 36.977778 17.066667 36.977778 36.977778s-17.066667 36.977778-36.977778 36.977778-36.977778-17.066667-36.977778-36.977778 17.066667-36.977778 36.977778-36.977778zM839.111111 713.955556c31.288889 0 56.888889-25.6 56.888889-56.888889s-25.6-56.888889-56.888889-56.888889-56.888889 25.6-56.888889 56.888889 25.6 56.888889 56.888889 56.888889z m0-82.488889c14.222222 0 25.6 11.377778 25.6 25.6s-11.377778 25.6-25.6 25.6-25.6-11.377778-25.6-25.6 14.222222-25.6 25.6-25.6zM497.777778 713.955556c79.644444 0 142.222222-62.577778 142.222222-142.222223s-62.577778-142.222222-142.222222-142.222222-142.222222 62.577778-142.222222 142.222222c0 76.8 65.422222 142.222222 142.222222 142.222223z m0-204.8c34.133333 0 59.733333 28.444444 59.733333 59.733333s-28.444444 59.733333-59.733333 59.733333-59.733333-28.444444-59.733334-59.733333 28.444444-59.733333 59.733334-59.733333z" p-id="9006" fill="#2c2c2c"></path></svg>