<?xml version="1.0" standalone="no"?>
<!DOCTYPE svg PUBLIC "-//W3C//DTD SVG 20010904//EN"
 "http://www.w3.org/TR/2001/REC-SVG-20010904/DTD/svg10.dtd">
<svg version="1.0" xmlns="http://www.w3.org/2000/svg"
 width="512.000000pt" height="512.000000pt" viewBox="0 0 512.000000 512.000000"
 preserveAspectRatio="xMidYMid meet">

<g transform="translate(0.000000,512.000000) scale(0.100000,-0.100000)"
fill="#000000" stroke="none">
<path d="M1875 4064 c-146 -60 -236 -103 -247 -117 -35 -44 -19 -106 37 -147
l34 -25 1 -258 0 -258 24 -24 c39 -39 73 -42 126 -13 95 53 342 222 354 242
22 36 130 510 122 539 -3 15 -38 54 -81 91 -60 53 -82 66 -108 66 -18 -1 -135
-43 -262 -96z m310 -47 l48 -43 -54 -228 -54 -229 -149 -100 c-83 -55 -158
-102 -168 -105 -17 -4 -18 10 -18 251 l0 255 -40 36 -41 37 38 16 c167 70 370
152 380 153 6 0 32 -19 58 -43z"/>
<path d="M3622 3964 c-13 -9 -90 -106 -173 -215 l-150 -199 -124 -63 -125 -62
-115 58 c-113 56 -158 67 -194 48 -9 -5 -68 -64 -129 -130 -125 -135 -129
-145 -93 -240 l18 -49 -61 -60 c-33 -33 -94 -79 -134 -102 -93 -54 -106 -78
-93 -161 11 -67 28 -92 70 -107 31 -11 59 -2 213 64 l88 37 74 -52 c68 -47 84
-53 185 -72 106 -20 111 -22 111 -46 0 -24 -2 -25 -37 -19 -21 3 -121 18 -223
33 l-186 27 -156 -63 c-86 -34 -163 -70 -172 -80 -15 -17 -76 -262 -76 -305 1
-11 6 -30 13 -42 17 -30 147 -144 176 -155 21 -9 152 0 252 16 l26 4 7 -194
c6 -173 10 -203 35 -284 16 -50 40 -106 55 -125 74 -98 239 -101 318 -7 14 16
103 179 199 363 120 231 173 343 173 365 0 23 -9 43 -32 66 -18 18 -32 36 -32
39 0 4 14 9 30 13 39 9 86 48 94 79 9 38 -10 76 -72 139 -31 31 -52 57 -47 56
6 0 55 -30 110 -67 95 -64 104 -73 182 -187 46 -66 93 -128 104 -137 25 -21
87 -23 114 -4 11 7 38 50 60 95 22 46 44 80 51 77 6 -2 49 -32 96 -65 88 -63
125 -74 169 -51 24 13 49 61 49 95 0 23 3 25 50 25 68 0 95 16 168 100 75 87
77 101 22 209 l-39 79 85 52 c47 29 91 62 99 74 23 35 85 266 79 291 -8 32
-40 59 -99 84 -49 21 -51 23 -47 57 4 32 9 37 79 69 66 30 76 39 90 75 9 22
19 40 22 40 3 -1 23 -22 43 -48 77 -97 107 -122 149 -122 26 0 47 8 66 24 l28
24 0 224 c0 198 -2 227 -19 258 -46 86 -117 132 -205 132 -48 -1 -837 -91
-927 -107 l-31 -5 1 46 c1 40 -3 49 -32 75 -30 27 -37 29 -120 29 -64 0 -94
-4 -110 -16z m139 -84 c26 0 28 -2 23 -30 -13 -63 30 -113 96 -112 19 0 248
26 508 57 l472 57 36 -19 c66 -34 74 -62 74 -273 l0 -185 -32 40 c-67 82 -119
133 -141 137 -12 2 -37 0 -55 -4 -28 -7 -38 -18 -56 -60 -20 -46 -28 -52 -86
-77 -81 -34 -99 -58 -106 -142 -8 -86 2 -104 81 -139 l64 -29 -21 -73 c-41
-146 -35 -137 -132 -198 -92 -56 -121 -92 -110 -135 3 -11 21 -55 41 -98 l37
-77 -48 -49 c-46 -47 -52 -50 -117 -56 -81 -8 -116 -35 -121 -92 l-3 -35 -76
55 c-92 66 -112 77 -138 77 -46 0 -71 -23 -113 -107 -24 -45 -46 -83 -49 -83
-3 0 -43 54 -88 119 -45 65 -90 125 -99 134 -34 29 -227 148 -250 154 -60 15
-133 -62 -118 -122 4 -15 32 -54 63 -86 31 -33 54 -61 52 -63 -2 -2 -25 -10
-51 -19 l-48 -16 -80 105 c-71 93 -80 110 -80 147 0 61 -18 115 -43 131 -12 8
-71 24 -132 36 -99 20 -116 27 -188 76 -47 32 -90 54 -106 54 -14 0 -81 -24
-148 -54 -117 -51 -122 -52 -127 -32 -11 39 -6 45 57 80 35 20 100 71 145 113
74 70 82 82 82 115 0 21 -9 59 -19 86 l-20 49 99 105 99 105 113 -58 c62 -32
125 -58 141 -59 15 0 94 34 176 75 l149 74 153 206 c148 198 155 206 183 201
16 -3 41 -6 57 -6z m-971 -1360 c110 -16 204 -30 209 -30 5 0 44 -46 87 -102
43 -57 109 -135 146 -174 l68 -71 -166 -319 c-92 -175 -178 -331 -191 -345
-31 -34 -75 -43 -118 -25 -44 19 -60 45 -90 146 -23 76 -25 100 -25 264 0 162
-2 184 -20 213 -11 19 -31 35 -47 39 -15 4 -85 2 -155 -5 l-128 -13 -60 53
c-33 30 -60 60 -60 69 1 8 11 62 24 120 l22 105 125 52 c68 28 136 52 152 52
15 1 117 -12 227 -29z"/>
<path d="M308 3946 c-15 -8 -65 -46 -110 -84 l-83 -70 -58 -158 c-31 -88 -57
-167 -57 -177 0 -30 27 -72 55 -85 15 -7 73 -12 139 -12 l114 0 70 -172 70
-173 -9 -115 c-4 -63 -9 -147 -10 -187 l-1 -72 102 -160 c57 -89 108 -165 114
-170 6 -5 90 -39 186 -76 169 -65 221 -88 280 -123 l28 -18 -34 -54 c-19 -30
-34 -67 -34 -83 0 -16 28 -78 64 -145 l65 -117 -9 -263 c-6 -164 -5 -273 0
-288 13 -33 115 -161 140 -174 27 -14 72 -12 96 5 35 24 46 67 43 164 l-4 91
176 167 c97 93 184 182 193 198 27 52 68 225 61 262 -7 37 -22 48 -344 255
-174 111 -187 118 -235 118 -38 0 -61 -6 -88 -25 l-37 -25 -47 22 c-39 19 -60
43 -135 150 -49 69 -89 129 -89 132 0 3 23 6 51 6 28 0 59 5 71 11 11 6 99 75
195 154 112 91 215 167 283 206 164 94 167 112 40 294 -105 151 -129 175 -173
175 -45 0 -70 -20 -113 -93 -56 -94 -53 -92 -86 -60 -17 15 -39 40 -49 55
l-20 27 103 76 c57 42 109 84 116 93 23 29 14 90 -24 162 -51 98 -99 113 -186
60 -26 -16 -50 -30 -52 -30 -3 0 -94 38 -203 84 -110 46 -264 120 -343 165
-79 45 -155 84 -169 87 -14 3 -38 -2 -53 -10z m184 -166 c134 -76 547 -260
584 -260 10 0 41 14 71 30 29 17 55 30 58 30 2 0 16 -22 29 -49 l25 -48 -100
-73 c-55 -40 -109 -84 -120 -98 -39 -50 -22 -94 77 -199 51 -54 64 -63 94 -63
49 0 72 19 125 105 26 41 49 75 50 75 10 0 165 -232 160 -239 -3 -5 -44 -31
-92 -58 -51 -28 -163 -110 -268 -195 l-180 -148 -68 0 c-62 0 -71 -3 -98 -29
-45 -46 -40 -82 25 -171 30 -41 51 -76 47 -78 -3 -1 -51 15 -106 37 l-100 38
-92 144 -92 144 12 181 11 181 -75 184 c-41 101 -83 193 -95 205 -17 18 -37
22 -144 28 -69 4 -126 9 -127 10 -2 1 19 63 46 137 l49 134 73 62 c41 34 75
62 77 63 1 0 66 -36 144 -80z m919 -1693 c268 -170 389 -251 389 -261 0 -6
-11 -51 -25 -101 -22 -81 -29 -94 -72 -134 -27 -25 -112 -107 -190 -183 l-142
-138 -3 -102 -3 -103 -43 56 -42 56 6 274 7 275 -62 113 c-35 62 -60 119 -57
127 11 28 106 162 118 167 25 10 36 6 119 -46z"/>
<path d="M4544 1738 c-83 -50 -157 -100 -163 -111 -7 -10 -19 -75 -28 -143
-16 -138 -13 -154 42 -190 26 -17 58 -15 245 12 35 5 36 4 59 -51 27 -66 51
-85 106 -85 55 1 161 25 182 41 21 18 133 253 133 281 0 11 -30 79 -67 150
-70 134 -92 158 -146 158 -14 0 -35 -9 -48 -19 -24 -19 -24 -19 -61 15 -58 52
-79 48 -254 -58z m212 -38 c35 -41 86 -50 126 -20 16 12 31 20 32 18 2 -1 27
-49 56 -106 l54 -103 -51 -103 -51 -103 -61 -10 -60 -9 -25 58 c-37 84 -57 91
-210 71 -64 -8 -120 -13 -122 -10 -4 4 15 190 19 193 38 25 254 154 260 154 5
0 20 -13 33 -30z"/>
</g>
</svg>
